<svg width="196" height="38" viewBox="0 0 196 38" fill="none" xmlns="http://www.w3.org/2000/svg">
<path d="M167.847 12.0294H157.134V26.4988H158.942C162.629 26.4988 165.667 26.406 168.913 25.9422L168.635 23.3452C165.806 23.7394 163.325 23.8785 160.334 23.9017V20.3307H166.919V17.78H160.334V14.6728H167.847V12.0294ZM170.305 31.1364H173.597V10.3599H170.305V31.1364Z" fill="#8E43E7"/>
<path d="M194.148 10.3599H191.041V24.1336H194.148V10.3599ZM175.829 21.6293L177.36 23.9017C180.537 22.5336 182.577 20.7713 183.783 18.5684H186.681V22.3249H189.742V10.6845H186.681V15.9714H184.78C185.105 14.7192 185.244 13.3511 185.244 11.8903H177.035V14.4873H182.044C181.974 14.9511 181.905 15.4149 181.766 15.8554L176.2 16.0641L176.571 18.6612L180.606 18.2438C179.609 19.5423 178.079 20.6554 175.829 21.6293ZM178.473 28.4929L179.818 31.0436C183.18 30.5567 185.499 29.1422 186.797 27.264C188.073 29.1422 190.392 30.5567 193.777 31.0436L195.029 28.4929C190.276 27.9132 188.374 25.5017 188.397 23.3916V23.0205H185.197V23.3916C185.174 25.5017 183.273 27.9132 178.473 28.4929Z" fill="#8E43E7"/>
<path d="M22.1262 34.3109H21.6257C21.4542 34.3109 21.3088 34.1812 21.2844 34.0072C20.9813 31.7624 19.8135 28.9925 17.1504 26.1655C16.9805 25.9868 16.9483 25.7083 17.08 25.4995C19.411 21.7741 21.5675 16.1819 20.3951 12.4564C20.0951 11.4994 19.5992 10.7131 18.9304 10.1215C18.7957 10.0028 18.8187 9.78454 18.9748 9.69753C20.6477 8.77842 21.7558 6.89908 21.6088 4.77295C21.4313 2.23236 19.4278 0.178998 16.9713 0.0113119C14.074 -0.184849 11.6557 2.19597 11.6557 5.14945C11.6557 6.66812 12.294 8.03491 13.3087 8.97617C13.4388 9.09639 13.4128 9.31154 13.2582 9.39538C13.0332 9.51719 12.8144 9.65798 12.6016 9.81618C10.1635 11.6576 9.38749 15.5191 9.31402 17.5092C9.28035 18.3982 9.34157 19.2683 9.49616 20.1257C9.80073 21.8421 10.4803 23.5015 11.5455 25.1246C11.8685 25.615 12.2282 26.0817 12.6169 26.5183L14.5944 28.7504C16.5963 31.0648 17.6723 33.3365 17.8269 35.4215C17.8345 35.499 17.8406 35.5749 17.8437 35.6524C17.9003 36.9686 18.9442 38 20.2206 38H22.1843C23.1807 38 23.9858 37.1568 23.9689 36.1207C23.9521 35.1051 23.1072 34.3094 22.1246 34.3094L22.1262 34.3109ZM16.6376 3.68774C17.4167 3.68774 18.0519 4.34266 18.0519 5.14945C18.0519 5.95624 17.4182 6.61117 16.6376 6.61117C15.8571 6.61117 15.225 5.95624 15.225 5.14945C15.225 4.34266 15.8571 3.68774 16.6376 3.68774ZM14.1245 22.4511C13.2215 20.8803 12.8205 19.3078 12.8802 17.6515C12.9445 15.9304 13.6623 13.5859 14.7061 12.7966C14.8898 12.6589 15.1209 12.5292 15.4714 12.5292C15.626 12.5292 15.8035 12.5545 16.0117 12.613C16.5397 12.7649 16.8259 13.0497 16.9973 13.597C17.5254 15.2707 16.6484 19.0025 14.7229 22.4416C14.5898 22.6805 14.2592 22.6853 14.123 22.4511H14.1245Z" fill="#8E43E7"/>
<path d="M10.1755 28.0108C10.1219 27.9349 10.0209 27.9175 9.94437 27.9665C7.04094 29.8538 4.88747 28.7575 3.96303 28.4506C2.79217 28.0599 1.54019 28.6452 1.05195 29.8142L0.1474 31.972C-0.244418 32.9069 0.171889 33.9921 1.07644 34.3971C1.98098 34.8021 3.03093 34.3718 3.42275 33.4385L3.81304 32.5083C3.87732 32.3532 4.03803 32.2662 4.1972 32.2995C6.10119 32.6902 8.88218 33.179 12.1866 30.871C12.2738 30.8109 12.2876 30.6827 12.2172 30.6036C11.905 30.2461 11.5943 29.8759 11.2882 29.4915C10.8964 28.9995 10.526 28.506 10.177 28.0124L10.1755 28.0108Z" fill="#8E43E7"/>
<g clip-path="url(#clip0_3165_68513)">
<path d="M32.2447 12.0837C31.8244 11.6685 31.6133 11.1533 31.6133 10.5343C31.6133 9.91535 31.8244 9.39827 32.2447 8.9831C32.6651 8.56794 33.1937 8.36035 33.8306 8.36035C34.4676 8.36035 34.9944 8.56794 35.4166 8.9831C35.8369 9.39827 36.048 9.91535 36.048 10.5343C36.048 11.1533 35.8369 11.6704 35.4166 12.0855C34.9962 12.5007 34.4676 12.7083 33.8306 12.7083C33.1937 12.7083 32.6669 12.5007 32.2447 12.0855V12.0837ZM35.6093 14.4558V29.1395H32.0006V14.4558H35.6093Z" fill="black"/>
<path d="M51.2059 15.902C52.254 17.0059 52.779 18.5477 52.779 20.5273V29.1421H49.1702V21.0312C49.1702 19.8649 48.8876 18.9685 48.3204 18.3401C47.7532 17.7136 46.9804 17.3984 46.0002 17.3984C45.02 17.3984 44.216 17.7117 43.6415 18.3401C43.0651 18.9667 42.7769 19.8649 42.7769 21.0312V29.1421H39.1682V14.4564H42.7769V16.285C43.2579 15.6491 43.8728 15.149 44.6199 14.7867C45.3669 14.4243 46.1874 14.2432 47.0814 14.2432C48.7829 14.2432 50.1578 14.7961 51.2059 15.9001V15.902Z" fill="black"/>
<path d="M60.4105 17.5051V24.6083C60.4105 25.1027 60.5261 25.4613 60.7592 25.6821C60.9905 25.9029 61.3815 26.0142 61.9321 26.0142H63.608V29.1412H61.3393C58.2977 29.1412 56.776 27.6221 56.776 24.5819V17.5051H55.0745V14.4574H56.776V10.8247H60.4105V14.4555H63.608V17.5033H60.4105V17.5051Z" fill="black"/>
<path d="M79.3842 22.9127H68.9435C69.0297 23.9733 69.3895 24.8036 70.0264 25.4037C70.6615 26.0038 71.4453 26.3057 72.3723 26.3057C73.7123 26.3057 74.6668 25.7132 75.2339 24.53H79.1272C78.7142 25.9434 77.9231 27.1059 76.7556 28.0155C75.5864 28.9251 74.151 29.3799 72.4494 29.3799C71.0746 29.3799 69.841 29.0666 68.7489 28.4382C67.6567 27.8117 66.8069 26.9228 66.1974 25.7736C65.5862 24.6243 65.2815 23.2996 65.2815 21.7974C65.2815 20.2952 65.5825 18.9441 66.1846 17.7948C66.7867 16.6455 67.6292 15.7624 68.7103 15.1453C69.7933 14.5263 71.0397 14.2168 72.4494 14.2168C73.8591 14.2168 75.0229 14.5169 76.0967 15.1188C77.1705 15.719 78.0038 16.5719 78.5967 17.6759C79.1896 18.7799 79.487 20.048 79.487 21.4785C79.487 22.0088 79.4521 22.4862 79.3842 22.9089V22.9127ZM75.7497 20.4217C75.7332 19.4668 75.3973 18.7044 74.7439 18.1288C74.0904 17.5551 73.2919 17.2683 72.3466 17.2683C71.4527 17.2683 70.7001 17.5476 70.0907 18.1024C69.4794 18.6591 69.1068 19.4328 68.9692 20.4217H75.7497Z" fill="black"/>
<path d="M87.5453 14.9075C88.2924 14.4659 89.1478 14.2451 90.1115 14.2451V18.142H89.157C88.0226 18.142 87.1672 18.4157 86.5927 18.9629C86.0163 19.5102 85.7281 20.4651 85.7281 21.8257V29.1402H82.1194V14.4565H85.7281V16.7361C86.1925 15.9586 86.7983 15.3491 87.5453 14.9075Z" fill="black"/>
<path d="M98.0632 14.8939C98.88 14.4428 99.8125 14.2183 100.861 14.2183C102.081 14.2183 103.184 14.5278 104.174 15.1467C105.161 15.7657 105.943 16.6451 106.52 17.7831C107.096 18.9229 107.384 20.2439 107.384 21.746C107.384 23.2482 107.096 24.5786 106.52 25.7354C105.943 26.8922 105.161 27.7886 104.174 28.4265C103.186 29.0624 102.081 29.3814 100.861 29.3814C99.8125 29.3814 98.8892 29.1606 98.0889 28.719C97.2904 28.2774 96.6406 27.7207 96.1431 27.0489V36.1392H92.5344V14.456H96.1431V16.5772C96.6075 15.9054 97.2463 15.3449 98.0632 14.8939ZM103.168 19.4532C102.815 18.8078 102.351 18.3171 101.777 17.9831C101.2 17.6472 100.578 17.4792 99.9079 17.4792C99.2379 17.4792 98.6395 17.651 98.065 17.9963C97.4886 18.3416 97.0242 18.8398 96.6736 19.4947C96.3212 20.1495 96.145 20.9176 96.145 21.8008C96.145 22.6839 96.3212 23.4539 96.6736 24.1068C97.0261 24.7598 97.4905 25.2599 98.065 25.6052C98.6414 25.9505 99.2544 26.1223 99.9079 26.1223C100.561 26.1223 101.2 25.9449 101.777 25.592C102.353 25.2391 102.815 24.7352 103.168 24.0804C103.52 23.4275 103.697 22.65 103.697 21.7479C103.697 20.8459 103.52 20.1004 103.168 19.455V19.4532Z" fill="black"/>
<path d="M109.948 17.7963C110.525 16.647 111.307 15.7638 112.294 15.1467C113.282 14.5278 114.387 14.2183 115.607 14.2183C116.672 14.2183 117.604 14.4391 118.405 14.8806C119.203 15.3222 119.844 15.8789 120.325 16.5508V14.456H123.959V29.1398H120.325V26.9922C119.86 27.681 119.22 28.251 118.405 28.702C117.588 29.153 116.646 29.3776 115.582 29.3776C114.379 29.3776 113.284 29.0587 112.294 28.4227C111.305 27.7867 110.523 26.8903 109.948 25.7316C109.372 24.5748 109.084 23.2444 109.084 21.7422C109.084 20.2401 109.372 18.9417 109.948 17.7925V17.7963ZM119.809 19.4796C119.466 18.8342 119.001 18.3398 118.418 17.9944C117.834 17.6491 117.206 17.4773 116.536 17.4773C115.866 17.4773 115.248 17.6453 114.68 17.9812C114.113 18.3171 113.652 18.8078 113.302 19.4513C112.949 20.0967 112.773 20.861 112.773 21.7441C112.773 22.6273 112.949 23.401 113.302 24.0634C113.654 24.7258 114.119 25.2334 114.693 25.5882C115.27 25.9411 115.883 26.1185 116.536 26.1185C117.19 26.1185 117.834 25.9468 118.418 25.6014C119.001 25.2561 119.466 24.7617 119.809 24.1163C120.152 23.4709 120.325 22.699 120.325 21.797C120.325 20.8949 120.152 20.1231 119.809 19.4777V19.4796Z" fill="black"/>
<path d="M132.596 14.9075C133.343 14.4659 134.199 14.2451 135.162 14.2451V18.142H134.208C133.073 18.142 132.218 18.4157 131.643 18.9629C131.067 19.5102 130.779 20.4651 130.779 21.8257V29.1402H127.17V14.4565H130.779V16.7361C131.243 15.9586 131.849 15.3491 132.596 14.9075Z" fill="black"/>
<path d="M146.361 29.1403L141.515 22.8844V29.1403H137.907V9.52734H141.515V20.6859L146.31 14.4565H151.002L144.711 21.8258L151.053 29.1403H146.361Z" fill="black"/>
</g>
<defs>
<clipPath id="clip0_3165_68513">
<rect width="119.44" height="27.7767" fill="white" transform="translate(31.6135 8.35986)"/>
</clipPath>
</defs>
</svg>
